<?xml version="1.0" encoding="iso-8859-1"?>
<!-- Generator: Adobe Illustrator 19.0.0, SVG Export Plug-In . SVG Version: 6.00 Build 0)  -->
<svg version="1.1" id="Layer_1" xmlns="http://www.w3.org/2000/svg" xmlns:xlink="http://www.w3.org/1999/xlink" x="0px" y="0px"
	 viewBox="0 0 512 512" style="enable-background:new 0 0 512 512;" xml:space="preserve">
<circle style="fill:#6B7F9E;" cx="256" cy="256" r="256"/>
<g>
	<polygon style="fill:#ECF0F1;" points="83.263,152.668 156.73,200.332 152.549,206.664 79.201,159 	"/>
	<polygon style="fill:#ECF0F1;" points="431.007,152.668 357.659,200.332 361.84,206.664 435.188,159 	"/>
	<polygon style="fill:#ECF0F1;" points="83.263,359.451 156.73,311.787 152.549,305.456 79.201,353 	"/>
	<polygon style="fill:#ECF0F1;" points="431.007,359.451 357.659,311.787 361.84,305.456 435.188,353 	"/>
	<polygon style="fill:#ECF0F1;" points="259.823,55.548 259.823,131.524 252.177,131.524 252.177,55.548 	"/>
	<polygon style="fill:#ECF0F1;" points="259.823,454.899 259.823,379.042 252.177,379.042 252.177,454.899 	"/>
	<path style="fill:#ECF0F1;" d="M257.792,52.562l86.727,50.053l86.846,50.053c1.075,0.597,1.792,1.792,1.792,3.106l0,0V256v100.226
		c0,1.434-0.836,2.628-2.031,3.225l-86.488,49.934l-86.846,50.053c-1.195,0.597-2.509,0.597-3.584,0l-86.727-50.053l-86.846-50.053
		c-1.075-0.597-1.792-1.792-1.792-3.106l0,0V256V155.774c0-1.434,0.836-2.628,2.031-3.225l86.488-49.934l86.846-50.053
		C255.403,51.965,256.717,51.965,257.792,52.562z M341.055,108.707L256,59.61l-85.055,49.098l-85.055,49.098V256v98.195
		l85.055,49.098L256,452.39l85.055-49.098l85.055-49.098V256v-98.195L341.055,108.707z"/>
</g>
<circle style="fill:#FFE356;" cx="82.427" cy="155.774" r="24.608"/>
<circle style="fill:#83CF8F;" cx="256" cy="55.548" r="24.608"/>
<circle style="fill:#FF7069;" cx="429.574" cy="155.774" r="24.608"/>
<circle style="fill:#FFE356;" cx="429.574" cy="356.226" r="24.608"/>
<circle style="fill:#83CF8F;" cx="256" cy="456.452" r="24.608"/>
<circle style="fill:#FF7069;" cx="82.427" cy="356.226" r="24.608"/>
<circle style="fill:#ECF0F1;" cx="256" cy="256" r="124.476"/>
<polygon style="fill:#F0BA7D;" points="240.112,257.075 246.443,257.075 265.557,257.075 271.888,257.075 274.397,283.834 
	278.936,287.537 288.612,293.629 256,370.561 223.388,293.629 233.064,287.537 237.603,283.834 "/>
<polygon style="fill:#ECF0F1;" points="229.719,289.448 203.438,297.811 256,370.561 300.797,295.421 282.161,289.568 
	265.796,301.036 246.204,301.036 "/>
<polygon style="fill:#FF5B62;" points="250.147,299.961 252.416,305.575 247.399,368.65 256,375.339 264.601,368.65 
	259.584,305.575 261.853,299.961 256,299.722 "/>
<path style="fill:#6B7F9E;" d="M230.197,289.329l-46.469,14.813c0,0-5.973,3.106-7.884,12.663
	c-1.792,9.079-2.628,18.397-4.062,30.94c22.219,20.308,51.726,32.732,84.218,32.732s61.999-12.424,84.218-32.732
	c-1.434-12.543-2.27-21.861-4.062-30.94c-1.792-9.557-7.884-12.663-7.884-12.663l-46.111-14.574L256,366.38l-25.803-76.931V289.329z
	"/>
<path style="fill:#8597B1;" d="M230.197,289.329l-10.035,3.225l-1.911,25.445c0,0,0.478,2.031,2.15,1.911l9.079,3.345
	c0,0,0.597,0.597,0.119,1.314l-7.765,5.256l26.759,50.412c2.509,0.119,5.017,0.239,7.526,0.239c2.509,0,5.017-0.119,7.526-0.239
	l26.759-50.412l-7.765-5.256c-0.478-0.717,0.119-1.314,0.119-1.314l9.079-3.345c1.553,0.239,2.15-1.911,2.15-1.911l-1.911-25.325
	l-9.676-3.106l-26.161,76.812l-25.803-76.931L230.197,289.329z"/>
<path style="fill:#FED298;" d="M219.087,202.841c0,2.509-0.956,4.898-0.836,7.287c-8.482-1.553-4.42,23.653,0.358,27.117
	c0.358,0.239,1.314-0.358,2.15-0.836c1.672,9.318,15.888,34.046,24.967,44.558c2.509,2.867,17.919,2.867,20.308,0.119
	c9.318-10.154,23.533-35.24,25.206-44.678c0.836,0.478,1.792,1.075,2.15,0.836c4.778-3.464,8.959-28.67,0.358-27.117
	c0.119-2.389-0.836-4.778-0.836-7.287c-0.478-19.591-18.277-29.387-36.913-29.506C237.364,173.454,219.565,183.25,219.087,202.841z"
	/>
<path style="fill:#596366;" d="M282.998,177.635c2.628-0.358,12.304,2.628,13.499,12.902c1.195,10.273,0.597,19.711,0.597,19.711
	s-5.615,1.434-6.331,7.287c-0.717,5.853-0.239,5.853-0.239,5.853l-2.031-0.478l-1.434-9.915c-8.482-5.256,0.119-13.14-8.362-15.052
	c-22.936,16.366-43.125,13.499-52.203,5.853c0,0,2.15,8.004,0.478,10.871c-1.672,2.867-0.717,7.406-0.717,7.406l-2.15-0.119
	c0,0,0.358-11.826-4.301-11.826c-17.919-29.626,38.944-66.538,63.313-32.373L282.998,177.635z"/>
<g>
	<path style="fill:#FFFFFF;" d="M237.364,280.011c0.717,0-7.765,9.557-7.765,9.557l7.168,24.608L256,299.841
		c-10.632-5.137-16.844-11.946-18.636-19.711V280.011z"/>
	<path style="fill:#FFFFFF;" d="M274.636,280.011c-0.717,0,7.765,9.557,7.765,9.557l-7.168,24.608L256,299.841
		c10.632-5.137,16.844-11.946,18.636-19.711V280.011z"/>
</g>
<g>
</g>
<g>
</g>
<g>
</g>
<g>
</g>
<g>
</g>
<g>
</g>
<g>
</g>
<g>
</g>
<g>
</g>
<g>
</g>
<g>
</g>
<g>
</g>
<g>
</g>
<g>
</g>
<g>
</g>
</svg>
