<?xml version="1.0" encoding="iso-8859-1"?>
<!-- Generator: Adobe Illustrator 19.0.0, SVG Export Plug-In . SVG Version: 6.00 Build 0)  -->
<svg version="1.1" id="Layer_1" xmlns="http://www.w3.org/2000/svg" xmlns:xlink="http://www.w3.org/1999/xlink" x="0px" y="0px"
	 viewBox="0 0 512 512" style="enable-background:new 0 0 512 512;" xml:space="preserve">
<circle style="fill:#FFD15D;" cx="256" cy="256" r="256"/>
<path style="fill:#F9B54C;" d="M294.145,509.168c97.208-14.524,176.543-83.696,205.767-175.257l-68.689-68.689l-94.239,4.074
	L80.799,295.822L294.145,509.168z"/>
<path style="fill:#935635;" d="M104.314,308.557c-25.969,0-37.993-32.29-18.316-49.238c34.001-29.286,97.402-48.98,170.005-48.98
	s136.002,19.694,170.005,48.98c19.677,16.948,7.651,49.238-18.316,49.238H104.314z"/>
<path style="fill:#804000;" d="M426.005,259.319c-34.001-29.286-97.402-48.98-170.005-48.98c-0.048,0-0.095,0.002-0.143,0.002
	v98.216h151.83C433.655,308.557,445.68,276.265,426.005,259.319z"/>
<g>
	<path style="fill:#935635;" d="M354.256,223.501c-0.022,1.062-0.038,2.129-0.038,3.208c0,27.122,7.328,49.109,16.37,49.109
		c8.07,0,14.77-17.523,16.119-40.574C376.748,230.802,365.877,226.864,354.256,223.501z"/>
	<path style="fill:#935635;" d="M277.875,210.953c0.614,25.445,7.683,45.52,16.322,45.52c8.271,0,15.105-18.404,16.21-42.305
		C299.896,212.656,289.027,211.57,277.875,210.953z"/>
</g>
<g>
	<path style="fill:#B97850;" d="M234.125,210.953c-11.152,0.617-22.021,1.703-32.53,3.215c1.105,23.9,7.939,42.305,16.21,42.305
		C226.442,256.471,233.512,236.396,234.125,210.953z"/>
	<path style="fill:#B97850;" d="M141.414,275.818c9.04,0,16.37-21.987,16.37-49.109c0-1.079-0.016-2.146-0.038-3.208
		c-11.621,3.363-22.492,7.302-32.449,11.743C126.643,258.294,133.344,275.818,141.414,275.818z"/>
</g>
<g>
</g>
<g>
</g>
<g>
</g>
<g>
</g>
<g>
</g>
<g>
</g>
<g>
</g>
<g>
</g>
<g>
</g>
<g>
</g>
<g>
</g>
<g>
</g>
<g>
</g>
<g>
</g>
<g>
</g>
</svg>
