<?xml version="1.0" encoding="iso-8859-1"?>
<!-- Generator: Adobe Illustrator 19.0.0, SVG Export Plug-In . SVG Version: 6.00 Build 0)  -->
<svg version="1.1" id="Layer_1" xmlns="http://www.w3.org/2000/svg" xmlns:xlink="http://www.w3.org/1999/xlink" x="0px" y="0px"
	 viewBox="0 0 512 512" style="enable-background:new 0 0 512 512;" xml:space="preserve">
<circle style="fill:#0BA4E0;" cx="256" cy="256" r="256"/>
<circle style="fill:#FFFFFF;" cx="256" cy="120.88" r="41.248"/>
<g>
	<path style="fill:#333333;" d="M254.048,259.68l-39.856-86.416c0,0-41.808,0.56-41.808,39.024s0,47.392,0,47.392
		S254.32,259.68,254.048,259.68z"/>
	<path style="fill:#333333;" d="M257.952,259.68l39.856-86.416c0,0,41.808,0.56,41.808,39.024s0,47.392,0,47.392
		S257.68,259.68,257.952,259.68z"/>
</g>
<g>
	<polygon style="fill:#FFFFFF;" points="256,173.28 227.296,173.28 256,236.832 284.704,173.28 	"/>
	<polygon style="fill:#FFFFFF;" points="226.272,370.304 213.424,360.736 256.944,302.272 300.432,360.736 287.6,370.304 
		256.944,329.072 	"/>
	<rect x="248.944" y="315.664" style="fill:#FFFFFF;" width="16" height="115.04"/>
</g>
<g>
</g>
<g>
</g>
<g>
</g>
<g>
</g>
<g>
</g>
<g>
</g>
<g>
</g>
<g>
</g>
<g>
</g>
<g>
</g>
<g>
</g>
<g>
</g>
<g>
</g>
<g>
</g>
<g>
</g>
</svg>
